<mxfile host="Electron" modified="2024-04-24T03:49:46.452Z" agent="Mozilla/5.0 (Windows NT 10.0; Win64; x64) AppleWebKit/537.36 (KHTML, like Gecko) draw.io/23.0.2 Chrome/120.0.6099.109 Electron/28.1.0 Safari/537.36" etag="BM5u39XhI6GsBhSPjC5z" version="23.0.2" type="device" pages="2">
  <diagram name="chapter 1" id="4fgzEyac7CK8pNtH8ozs">
    <mxGraphModel dx="2835" dy="955" grid="1" gridSize="10" guides="1" tooltips="1" connect="1" arrows="1" fold="1" page="1" pageScale="1" pageWidth="850" pageHeight="1100" background="#ffffff" math="0" shadow="0">
      <root>
        <mxCell id="0" />
        <mxCell id="1" parent="0" />
        <mxCell id="2NzjeNtIevRZUWGrad5a-26" value="" style="edgeStyle=entityRelationEdgeStyle;rounded=0;orthogonalLoop=1;jettySize=auto;html=1;startArrow=none;endArrow=none;segment=10;curved=1;sourcePerimeterSpacing=0;targetPerimeterSpacing=0;" edge="1" parent="1" source="zfb7zIQYwAPmPtIRVyZI-37" target="2NzjeNtIevRZUWGrad5a-25" visible="0">
          <mxGeometry relative="1" as="geometry" />
        </mxCell>
        <mxCell id="2NzjeNtIevRZUWGrad5a-28" value="" style="edgeStyle=entityRelationEdgeStyle;rounded=0;orthogonalLoop=1;jettySize=auto;html=1;startArrow=none;endArrow=none;segment=10;curved=1;sourcePerimeterSpacing=0;targetPerimeterSpacing=0;" edge="1" parent="1" source="zfb7zIQYwAPmPtIRVyZI-37" target="2NzjeNtIevRZUWGrad5a-27" visible="0">
          <mxGeometry relative="1" as="geometry" />
        </mxCell>
        <mxCell id="zfb7zIQYwAPmPtIRVyZI-37" value="Hardware faults" style="whiteSpace=wrap;html=1;rounded=1;arcSize=50;align=center;verticalAlign=middle;strokeWidth=1;autosize=1;spacing=4;treeFolding=1;treeMoving=1;newEdgeStyle={&quot;edgeStyle&quot;:&quot;entityRelationEdgeStyle&quot;,&quot;startArrow&quot;:&quot;none&quot;,&quot;endArrow&quot;:&quot;none&quot;,&quot;segment&quot;:10,&quot;curved&quot;:1,&quot;sourcePerimeterSpacing&quot;:0,&quot;targetPerimeterSpacing&quot;:0};" parent="1" vertex="1" collapsed="1">
          <mxGeometry x="-220" y="140" width="130" height="30" as="geometry" />
        </mxCell>
        <mxCell id="zfb7zIQYwAPmPtIRVyZI-38" value="" style="edgeStyle=entityRelationEdgeStyle;startArrow=none;endArrow=none;segment=10;curved=1;sourcePerimeterSpacing=0;targetPerimeterSpacing=0;rounded=0;exitX=0.114;exitY=-0.04;exitDx=0;exitDy=0;exitPerimeter=0;" parent="1" source="zfb7zIQYwAPmPtIRVyZI-43" target="zfb7zIQYwAPmPtIRVyZI-37" edge="1">
          <mxGeometry relative="1" as="geometry">
            <mxPoint x="180" y="424.98" as="sourcePoint" />
            <Array as="points">
              <mxPoint x="60" y="430" />
              <mxPoint x="50" y="390" />
              <mxPoint x="50" y="380" />
            </Array>
          </mxGeometry>
        </mxCell>
        <mxCell id="2NzjeNtIevRZUWGrad5a-14" value="" style="edgeStyle=entityRelationEdgeStyle;rounded=0;orthogonalLoop=1;jettySize=auto;html=1;startArrow=none;endArrow=none;segment=10;curved=1;sourcePerimeterSpacing=0;targetPerimeterSpacing=0;" edge="1" parent="1" source="zfb7zIQYwAPmPtIRVyZI-39" target="2NzjeNtIevRZUWGrad5a-13" visible="0">
          <mxGeometry relative="1" as="geometry" />
        </mxCell>
        <mxCell id="2NzjeNtIevRZUWGrad5a-16" value="" style="edgeStyle=entityRelationEdgeStyle;rounded=0;orthogonalLoop=1;jettySize=auto;html=1;startArrow=none;endArrow=none;segment=10;curved=1;sourcePerimeterSpacing=0;targetPerimeterSpacing=0;" edge="1" parent="1" source="zfb7zIQYwAPmPtIRVyZI-39" target="2NzjeNtIevRZUWGrad5a-15" visible="0">
          <mxGeometry relative="1" as="geometry" />
        </mxCell>
        <mxCell id="2NzjeNtIevRZUWGrad5a-18" value="" style="edgeStyle=entityRelationEdgeStyle;rounded=0;orthogonalLoop=1;jettySize=auto;html=1;startArrow=none;endArrow=none;segment=10;curved=1;sourcePerimeterSpacing=0;targetPerimeterSpacing=0;" edge="1" parent="1" source="zfb7zIQYwAPmPtIRVyZI-39" target="2NzjeNtIevRZUWGrad5a-17" visible="0">
          <mxGeometry relative="1" as="geometry" />
        </mxCell>
        <mxCell id="2NzjeNtIevRZUWGrad5a-21" value="" style="edgeStyle=entityRelationEdgeStyle;rounded=0;orthogonalLoop=1;jettySize=auto;html=1;startArrow=none;endArrow=none;segment=10;curved=1;sourcePerimeterSpacing=0;targetPerimeterSpacing=0;" edge="1" parent="1" source="zfb7zIQYwAPmPtIRVyZI-39" target="2NzjeNtIevRZUWGrad5a-20" visible="0">
          <mxGeometry relative="1" as="geometry" />
        </mxCell>
        <mxCell id="zfb7zIQYwAPmPtIRVyZI-39" value="Software Faults" style="whiteSpace=wrap;html=1;rounded=1;arcSize=50;align=center;verticalAlign=middle;strokeWidth=1;autosize=1;spacing=4;treeFolding=1;treeMoving=1;newEdgeStyle={&quot;edgeStyle&quot;:&quot;entityRelationEdgeStyle&quot;,&quot;startArrow&quot;:&quot;none&quot;,&quot;endArrow&quot;:&quot;none&quot;,&quot;segment&quot;:10,&quot;curved&quot;:1,&quot;sourcePerimeterSpacing&quot;:0,&quot;targetPerimeterSpacing&quot;:0};" parent="1" vertex="1" collapsed="1">
          <mxGeometry x="-215" y="340" width="130" height="30" as="geometry" />
        </mxCell>
        <mxCell id="zfb7zIQYwAPmPtIRVyZI-40" value="" style="edgeStyle=entityRelationEdgeStyle;startArrow=none;endArrow=none;segment=10;curved=1;sourcePerimeterSpacing=0;targetPerimeterSpacing=0;rounded=0;exitX=0;exitY=0.5;exitDx=0;exitDy=0;" parent="1" source="zfb7zIQYwAPmPtIRVyZI-43" target="zfb7zIQYwAPmPtIRVyZI-39" edge="1">
          <mxGeometry relative="1" as="geometry">
            <mxPoint x="180" y="435" as="sourcePoint" />
          </mxGeometry>
        </mxCell>
        <mxCell id="2NzjeNtIevRZUWGrad5a-6" value="" style="edgeStyle=entityRelationEdgeStyle;rounded=0;orthogonalLoop=1;jettySize=auto;html=1;startArrow=none;endArrow=none;segment=10;curved=1;sourcePerimeterSpacing=0;targetPerimeterSpacing=0;" edge="1" parent="1" source="zfb7zIQYwAPmPtIRVyZI-41" target="2NzjeNtIevRZUWGrad5a-5" visible="0">
          <mxGeometry relative="1" as="geometry" />
        </mxCell>
        <mxCell id="2NzjeNtIevRZUWGrad5a-7" value="" style="edgeStyle=entityRelationEdgeStyle;rounded=0;orthogonalLoop=1;jettySize=auto;html=1;startArrow=none;endArrow=none;segment=10;curved=1;sourcePerimeterSpacing=0;targetPerimeterSpacing=0;" edge="1" parent="1" source="zfb7zIQYwAPmPtIRVyZI-41" target="2NzjeNtIevRZUWGrad5a-5" visible="0">
          <mxGeometry relative="1" as="geometry" />
        </mxCell>
        <mxCell id="2NzjeNtIevRZUWGrad5a-8" value="" style="edgeStyle=entityRelationEdgeStyle;rounded=0;orthogonalLoop=1;jettySize=auto;html=1;startArrow=none;endArrow=none;segment=10;curved=1;sourcePerimeterSpacing=0;targetPerimeterSpacing=0;" edge="1" parent="1" source="zfb7zIQYwAPmPtIRVyZI-41" target="2NzjeNtIevRZUWGrad5a-5" visible="0">
          <mxGeometry relative="1" as="geometry" />
        </mxCell>
        <mxCell id="2NzjeNtIevRZUWGrad5a-10" value="" style="edgeStyle=entityRelationEdgeStyle;rounded=0;orthogonalLoop=1;jettySize=auto;html=1;startArrow=none;endArrow=none;segment=10;curved=1;sourcePerimeterSpacing=0;targetPerimeterSpacing=0;" edge="1" parent="1" source="zfb7zIQYwAPmPtIRVyZI-41" target="2NzjeNtIevRZUWGrad5a-9" visible="0">
          <mxGeometry relative="1" as="geometry" />
        </mxCell>
        <mxCell id="2NzjeNtIevRZUWGrad5a-12" value="" style="edgeStyle=entityRelationEdgeStyle;rounded=0;orthogonalLoop=1;jettySize=auto;html=1;startArrow=none;endArrow=none;segment=10;curved=1;sourcePerimeterSpacing=0;targetPerimeterSpacing=0;" edge="1" parent="1" source="zfb7zIQYwAPmPtIRVyZI-41" target="2NzjeNtIevRZUWGrad5a-11" visible="0">
          <mxGeometry relative="1" as="geometry" />
        </mxCell>
        <mxCell id="zfb7zIQYwAPmPtIRVyZI-41" value="Human Errors" style="whiteSpace=wrap;html=1;rounded=1;arcSize=50;align=center;verticalAlign=middle;strokeWidth=1;autosize=1;spacing=4;treeFolding=1;treeMoving=1;newEdgeStyle={&quot;edgeStyle&quot;:&quot;entityRelationEdgeStyle&quot;,&quot;startArrow&quot;:&quot;none&quot;,&quot;endArrow&quot;:&quot;none&quot;,&quot;segment&quot;:10,&quot;curved&quot;:1,&quot;sourcePerimeterSpacing&quot;:0,&quot;targetPerimeterSpacing&quot;:0};" parent="1" vertex="1" collapsed="1">
          <mxGeometry x="-205" y="550" width="120" height="30" as="geometry" />
        </mxCell>
        <mxCell id="zfb7zIQYwAPmPtIRVyZI-42" value="" style="edgeStyle=entityRelationEdgeStyle;startArrow=none;endArrow=none;segment=10;curved=1;sourcePerimeterSpacing=0;targetPerimeterSpacing=0;rounded=0;exitX=0;exitY=0.75;exitDx=0;exitDy=0;" parent="1" source="zfb7zIQYwAPmPtIRVyZI-43" target="zfb7zIQYwAPmPtIRVyZI-41" edge="1">
          <mxGeometry relative="1" as="geometry">
            <mxPoint x="208.1600000000003" y="462.3599999999999" as="sourcePoint" />
            <Array as="points">
              <mxPoint x="200" y="450" />
            </Array>
          </mxGeometry>
        </mxCell>
        <mxCell id="zfb7zIQYwAPmPtIRVyZI-43" value="Reliability" style="whiteSpace=wrap;html=1;rounded=1;arcSize=50;align=center;verticalAlign=middle;strokeWidth=1;autosize=1;spacing=4;treeFolding=1;treeMoving=1;newEdgeStyle={&quot;edgeStyle&quot;:&quot;entityRelationEdgeStyle&quot;,&quot;startArrow&quot;:&quot;none&quot;,&quot;endArrow&quot;:&quot;none&quot;,&quot;segment&quot;:10,&quot;curved&quot;:1,&quot;sourcePerimeterSpacing&quot;:0,&quot;targetPerimeterSpacing&quot;:0};" parent="1" vertex="1">
          <mxGeometry x="90" y="340" width="120" height="30" as="geometry" />
        </mxCell>
        <mxCell id="zfb7zIQYwAPmPtIRVyZI-44" value="" style="edgeStyle=entityRelationEdgeStyle;startArrow=none;endArrow=none;segment=10;curved=1;sourcePerimeterSpacing=0;targetPerimeterSpacing=0;rounded=0;entryX=1;entryY=0.5;entryDx=0;entryDy=0;exitX=0.009;exitY=0.274;exitDx=0;exitDy=0;exitPerimeter=0;" parent="1" source="zfb7zIQYwAPmPtIRVyZI-45" target="zfb7zIQYwAPmPtIRVyZI-43" edge="1">
          <mxGeometry relative="1" as="geometry">
            <mxPoint x="260" y="580" as="sourcePoint" />
            <mxPoint x="407.5" y="543" as="targetPoint" />
          </mxGeometry>
        </mxCell>
        <mxCell id="zfb7zIQYwAPmPtIRVyZI-45" value="Software" style="ellipse;whiteSpace=wrap;html=1;align=center;newEdgeStyle={&quot;edgeStyle&quot;:&quot;entityRelationEdgeStyle&quot;,&quot;startArrow&quot;:&quot;none&quot;,&quot;endArrow&quot;:&quot;none&quot;,&quot;segment&quot;:10,&quot;curved&quot;:1,&quot;sourcePerimeterSpacing&quot;:0,&quot;targetPerimeterSpacing&quot;:0};treeFolding=1;treeMoving=1;" parent="1" vertex="1">
          <mxGeometry x="390" y="530" width="170" height="60" as="geometry" />
        </mxCell>
        <mxCell id="2NzjeNtIevRZUWGrad5a-51" value="" style="edgeStyle=entityRelationEdgeStyle;rounded=0;orthogonalLoop=1;jettySize=auto;html=1;startArrow=none;endArrow=none;segment=10;curved=1;sourcePerimeterSpacing=0;targetPerimeterSpacing=0;" edge="1" parent="1" source="zfb7zIQYwAPmPtIRVyZI-47" target="2NzjeNtIevRZUWGrad5a-50">
          <mxGeometry relative="1" as="geometry" />
        </mxCell>
        <mxCell id="2NzjeNtIevRZUWGrad5a-53" value="" style="edgeStyle=entityRelationEdgeStyle;rounded=0;orthogonalLoop=1;jettySize=auto;html=1;startArrow=none;endArrow=none;segment=10;curved=1;sourcePerimeterSpacing=0;targetPerimeterSpacing=0;" edge="1" parent="1" source="zfb7zIQYwAPmPtIRVyZI-47" target="2NzjeNtIevRZUWGrad5a-52">
          <mxGeometry relative="1" as="geometry" />
        </mxCell>
        <mxCell id="2NzjeNtIevRZUWGrad5a-55" value="" style="edgeStyle=entityRelationEdgeStyle;rounded=0;orthogonalLoop=1;jettySize=auto;html=1;startArrow=none;endArrow=none;segment=10;curved=1;sourcePerimeterSpacing=0;targetPerimeterSpacing=0;" edge="1" parent="1" source="zfb7zIQYwAPmPtIRVyZI-47" target="2NzjeNtIevRZUWGrad5a-54">
          <mxGeometry relative="1" as="geometry" />
        </mxCell>
        <mxCell id="zfb7zIQYwAPmPtIRVyZI-47" value="Maintainability" style="whiteSpace=wrap;html=1;rounded=1;arcSize=50;align=center;verticalAlign=middle;strokeWidth=1;autosize=1;spacing=4;treeFolding=1;treeMoving=1;newEdgeStyle={&quot;edgeStyle&quot;:&quot;entityRelationEdgeStyle&quot;,&quot;startArrow&quot;:&quot;none&quot;,&quot;endArrow&quot;:&quot;none&quot;,&quot;segment&quot;:10,&quot;curved&quot;:1,&quot;sourcePerimeterSpacing&quot;:0,&quot;targetPerimeterSpacing&quot;:0};" parent="1" vertex="1">
          <mxGeometry x="70" y="780" width="120" height="30" as="geometry" />
        </mxCell>
        <mxCell id="zfb7zIQYwAPmPtIRVyZI-48" value="" style="edgeStyle=entityRelationEdgeStyle;startArrow=none;endArrow=none;segment=10;curved=1;sourcePerimeterSpacing=0;targetPerimeterSpacing=0;rounded=0;exitX=0.101;exitY=0.845;exitDx=0;exitDy=0;exitPerimeter=0;" parent="1" source="zfb7zIQYwAPmPtIRVyZI-45" target="zfb7zIQYwAPmPtIRVyZI-47" edge="1">
          <mxGeometry relative="1" as="geometry">
            <mxPoint x="55" y="712" as="sourcePoint" />
          </mxGeometry>
        </mxCell>
        <mxCell id="2NzjeNtIevRZUWGrad5a-33" value="" style="edgeStyle=entityRelationEdgeStyle;rounded=0;orthogonalLoop=1;jettySize=auto;html=1;startArrow=none;endArrow=none;segment=10;curved=1;sourcePerimeterSpacing=0;targetPerimeterSpacing=0;" edge="1" parent="1" source="zfb7zIQYwAPmPtIRVyZI-49" target="2NzjeNtIevRZUWGrad5a-32">
          <mxGeometry relative="1" as="geometry" />
        </mxCell>
        <mxCell id="2NzjeNtIevRZUWGrad5a-44" value="" style="edgeStyle=entityRelationEdgeStyle;rounded=0;orthogonalLoop=1;jettySize=auto;html=1;startArrow=none;endArrow=none;segment=10;curved=1;sourcePerimeterSpacing=0;targetPerimeterSpacing=0;" edge="1" parent="1" source="zfb7zIQYwAPmPtIRVyZI-49" target="2NzjeNtIevRZUWGrad5a-43">
          <mxGeometry relative="1" as="geometry" />
        </mxCell>
        <mxCell id="zfb7zIQYwAPmPtIRVyZI-49" value="Scalability" style="whiteSpace=wrap;html=1;rounded=1;arcSize=50;align=center;verticalAlign=middle;strokeWidth=1;autosize=1;spacing=4;treeFolding=1;treeMoving=1;newEdgeStyle={&quot;edgeStyle&quot;:&quot;entityRelationEdgeStyle&quot;,&quot;startArrow&quot;:&quot;none&quot;,&quot;endArrow&quot;:&quot;none&quot;,&quot;segment&quot;:10,&quot;curved&quot;:1,&quot;sourcePerimeterSpacing&quot;:0,&quot;targetPerimeterSpacing&quot;:0};shadow=1;" parent="1" vertex="1">
          <mxGeometry x="710" y="548" width="100" height="30" as="geometry" />
        </mxCell>
        <mxCell id="zfb7zIQYwAPmPtIRVyZI-50" value="" style="edgeStyle=entityRelationEdgeStyle;startArrow=none;endArrow=none;segment=10;curved=1;sourcePerimeterSpacing=0;targetPerimeterSpacing=0;rounded=0;exitX=1;exitY=0.5;exitDx=0;exitDy=0;" parent="1" source="zfb7zIQYwAPmPtIRVyZI-45" target="zfb7zIQYwAPmPtIRVyZI-49" edge="1">
          <mxGeometry relative="1" as="geometry">
            <mxPoint x="690" y="590" as="sourcePoint" />
          </mxGeometry>
        </mxCell>
        <mxCell id="2NzjeNtIevRZUWGrad5a-5" value="Make it fast to rollback" style="whiteSpace=wrap;html=1;rounded=1;arcSize=50;align=center;verticalAlign=middle;strokeWidth=1;autosize=1;spacing=4;treeFolding=1;treeMoving=1;newEdgeStyle={&quot;edgeStyle&quot;:&quot;entityRelationEdgeStyle&quot;,&quot;startArrow&quot;:&quot;none&quot;,&quot;endArrow&quot;:&quot;none&quot;,&quot;segment&quot;:10,&quot;curved&quot;:1,&quot;sourcePerimeterSpacing&quot;:0,&quot;targetPerimeterSpacing&quot;:0};" vertex="1" collapsed="1" visible="0" parent="1">
          <mxGeometry x="-550" y="610" width="160" height="30" as="geometry" />
        </mxCell>
        <mxCell id="2NzjeNtIevRZUWGrad5a-9" value="Implement Good Management Practice and training" style="whiteSpace=wrap;html=1;rounded=1;arcSize=50;align=center;verticalAlign=middle;strokeWidth=1;autosize=1;spacing=4;treeFolding=1;treeMoving=1;newEdgeStyle={&quot;edgeStyle&quot;:&quot;entityRelationEdgeStyle&quot;,&quot;startArrow&quot;:&quot;none&quot;,&quot;endArrow&quot;:&quot;none&quot;,&quot;segment&quot;:10,&quot;curved&quot;:1,&quot;sourcePerimeterSpacing&quot;:0,&quot;targetPerimeterSpacing&quot;:0};" vertex="1" collapsed="1" visible="0" parent="1">
          <mxGeometry x="-730" y="480" width="345" height="30" as="geometry" />
        </mxCell>
        <mxCell id="2NzjeNtIevRZUWGrad5a-11" value="provide fully featured non prod environment for development and testing" style="whiteSpace=wrap;html=1;rounded=1;arcSize=50;align=center;verticalAlign=middle;strokeWidth=1;autosize=1;spacing=4;treeFolding=1;treeMoving=1;newEdgeStyle={&quot;edgeStyle&quot;:&quot;entityRelationEdgeStyle&quot;,&quot;startArrow&quot;:&quot;none&quot;,&quot;endArrow&quot;:&quot;none&quot;,&quot;segment&quot;:10,&quot;curved&quot;:1,&quot;sourcePerimeterSpacing&quot;:0,&quot;targetPerimeterSpacing&quot;:0};" vertex="1" collapsed="1" visible="0" parent="1">
          <mxGeometry x="-805" y="535" width="430" height="30" as="geometry" />
        </mxCell>
        <mxCell id="2NzjeNtIevRZUWGrad5a-13" value="Carefully thinking about assumptions and interaction in the system" style="whiteSpace=wrap;html=1;rounded=1;arcSize=50;align=center;verticalAlign=middle;strokeWidth=1;autosize=1;spacing=4;treeFolding=1;treeMoving=1;newEdgeStyle={&quot;edgeStyle&quot;:&quot;entityRelationEdgeStyle&quot;,&quot;startArrow&quot;:&quot;none&quot;,&quot;endArrow&quot;:&quot;none&quot;,&quot;segment&quot;:10,&quot;curved&quot;:1,&quot;sourcePerimeterSpacing&quot;:0,&quot;targetPerimeterSpacing&quot;:0};" vertex="1" visible="0" parent="1">
          <mxGeometry x="-910" y="250" width="400" height="30" as="geometry" />
        </mxCell>
        <mxCell id="2NzjeNtIevRZUWGrad5a-15" value="Thorough Testing" style="whiteSpace=wrap;html=1;rounded=1;arcSize=50;align=center;verticalAlign=middle;strokeWidth=1;autosize=1;spacing=4;treeFolding=1;treeMoving=1;newEdgeStyle={&quot;edgeStyle&quot;:&quot;entityRelationEdgeStyle&quot;,&quot;startArrow&quot;:&quot;none&quot;,&quot;endArrow&quot;:&quot;none&quot;,&quot;segment&quot;:10,&quot;curved&quot;:1,&quot;sourcePerimeterSpacing&quot;:0,&quot;targetPerimeterSpacing&quot;:0};" vertex="1" visible="0" parent="1">
          <mxGeometry x="-710" y="420" width="140" height="30" as="geometry" />
        </mxCell>
        <mxCell id="2NzjeNtIevRZUWGrad5a-17" value="process Isolation" style="whiteSpace=wrap;html=1;rounded=1;arcSize=50;align=center;verticalAlign=middle;strokeWidth=1;autosize=1;spacing=4;treeFolding=1;treeMoving=1;newEdgeStyle={&quot;edgeStyle&quot;:&quot;entityRelationEdgeStyle&quot;,&quot;startArrow&quot;:&quot;none&quot;,&quot;endArrow&quot;:&quot;none&quot;,&quot;segment&quot;:10,&quot;curved&quot;:1,&quot;sourcePerimeterSpacing&quot;:0,&quot;targetPerimeterSpacing&quot;:0};" vertex="1" visible="0" parent="1">
          <mxGeometry x="-680" y="370" width="130" height="30" as="geometry" />
        </mxCell>
        <mxCell id="2NzjeNtIevRZUWGrad5a-20" value="Implement monitoring and analysing system behaviour in production" style="whiteSpace=wrap;html=1;rounded=1;arcSize=50;align=center;verticalAlign=middle;strokeWidth=1;autosize=1;spacing=4;treeFolding=1;treeMoving=1;newEdgeStyle={&quot;edgeStyle&quot;:&quot;entityRelationEdgeStyle&quot;,&quot;startArrow&quot;:&quot;none&quot;,&quot;endArrow&quot;:&quot;none&quot;,&quot;segment&quot;:10,&quot;curved&quot;:1,&quot;sourcePerimeterSpacing&quot;:0,&quot;targetPerimeterSpacing&quot;:0};" vertex="1" visible="0" parent="1">
          <mxGeometry x="-920" y="310" width="410" height="30" as="geometry" />
        </mxCell>
        <mxCell id="2NzjeNtIevRZUWGrad5a-25" value="Supply dual power" style="whiteSpace=wrap;html=1;rounded=1;arcSize=50;align=center;verticalAlign=middle;strokeWidth=1;autosize=1;spacing=4;treeFolding=1;treeMoving=1;newEdgeStyle={&quot;edgeStyle&quot;:&quot;entityRelationEdgeStyle&quot;,&quot;startArrow&quot;:&quot;none&quot;,&quot;endArrow&quot;:&quot;none&quot;,&quot;segment&quot;:10,&quot;curved&quot;:1,&quot;sourcePerimeterSpacing&quot;:0,&quot;targetPerimeterSpacing&quot;:0};" vertex="1" visible="0" parent="1">
          <mxGeometry x="-570" y="80" width="140" height="30" as="geometry" />
        </mxCell>
        <mxCell id="2NzjeNtIevRZUWGrad5a-27" value="Disk may be set in RAID configuration" style="whiteSpace=wrap;html=1;rounded=1;arcSize=50;align=center;verticalAlign=middle;strokeWidth=1;autosize=1;spacing=4;treeFolding=1;treeMoving=1;newEdgeStyle={&quot;edgeStyle&quot;:&quot;entityRelationEdgeStyle&quot;,&quot;startArrow&quot;:&quot;none&quot;,&quot;endArrow&quot;:&quot;none&quot;,&quot;segment&quot;:10,&quot;curved&quot;:1,&quot;sourcePerimeterSpacing&quot;:0,&quot;targetPerimeterSpacing&quot;:0};" vertex="1" visible="0" parent="1">
          <mxGeometry x="-660" y="190" width="250" height="30" as="geometry" />
        </mxCell>
        <mxCell id="2NzjeNtIevRZUWGrad5a-40" value="" style="edgeStyle=entityRelationEdgeStyle;rounded=0;orthogonalLoop=1;jettySize=auto;html=1;startArrow=none;endArrow=none;segment=10;curved=1;sourcePerimeterSpacing=0;targetPerimeterSpacing=0;exitX=1;exitY=0.5;exitDx=0;exitDy=0;" edge="1" parent="1" source="zfb7zIQYwAPmPtIRVyZI-49" target="2NzjeNtIevRZUWGrad5a-39">
          <mxGeometry relative="1" as="geometry" />
        </mxCell>
        <mxCell id="2NzjeNtIevRZUWGrad5a-32" value="Describe Load Type" style="whiteSpace=wrap;html=1;rounded=1;arcSize=50;align=center;verticalAlign=middle;strokeWidth=1;autosize=1;spacing=4;treeFolding=1;treeMoving=1;newEdgeStyle={&quot;edgeStyle&quot;:&quot;entityRelationEdgeStyle&quot;,&quot;startArrow&quot;:&quot;none&quot;,&quot;endArrow&quot;:&quot;none&quot;,&quot;segment&quot;:10,&quot;curved&quot;:1,&quot;sourcePerimeterSpacing&quot;:0,&quot;targetPerimeterSpacing&quot;:0};" vertex="1" parent="1">
          <mxGeometry x="930" y="440" width="150" height="30" as="geometry" />
        </mxCell>
        <mxCell id="2NzjeNtIevRZUWGrad5a-46" value="" style="edgeStyle=entityRelationEdgeStyle;rounded=0;orthogonalLoop=1;jettySize=auto;html=1;startArrow=none;endArrow=none;segment=10;curved=1;sourcePerimeterSpacing=0;targetPerimeterSpacing=0;" edge="1" parent="1" source="2NzjeNtIevRZUWGrad5a-39" target="2NzjeNtIevRZUWGrad5a-45">
          <mxGeometry relative="1" as="geometry" />
        </mxCell>
        <mxCell id="2NzjeNtIevRZUWGrad5a-48" value="" style="edgeStyle=entityRelationEdgeStyle;rounded=0;orthogonalLoop=1;jettySize=auto;html=1;startArrow=none;endArrow=none;segment=10;curved=1;sourcePerimeterSpacing=0;targetPerimeterSpacing=0;" edge="1" parent="1" source="2NzjeNtIevRZUWGrad5a-39" target="2NzjeNtIevRZUWGrad5a-47">
          <mxGeometry relative="1" as="geometry" />
        </mxCell>
        <mxCell id="2NzjeNtIevRZUWGrad5a-39" value="Implement scalability with increase load" style="whiteSpace=wrap;html=1;rounded=1;arcSize=50;align=center;verticalAlign=middle;strokeWidth=1;autosize=1;spacing=4;treeFolding=1;treeMoving=1;newEdgeStyle={&quot;edgeStyle&quot;:&quot;entityRelationEdgeStyle&quot;,&quot;startArrow&quot;:&quot;none&quot;,&quot;endArrow&quot;:&quot;none&quot;,&quot;segment&quot;:10,&quot;curved&quot;:1,&quot;sourcePerimeterSpacing&quot;:0,&quot;targetPerimeterSpacing&quot;:0};" vertex="1" parent="1">
          <mxGeometry x="930" y="670" width="260" height="30" as="geometry" />
        </mxCell>
        <mxCell id="2NzjeNtIevRZUWGrad5a-43" value="Describe Performance at which point the performance is reducing" style="whiteSpace=wrap;html=1;rounded=1;arcSize=50;align=center;verticalAlign=middle;strokeWidth=1;autosize=1;spacing=4;treeFolding=1;treeMoving=1;newEdgeStyle={&quot;edgeStyle&quot;:&quot;entityRelationEdgeStyle&quot;,&quot;startArrow&quot;:&quot;none&quot;,&quot;endArrow&quot;:&quot;none&quot;,&quot;segment&quot;:10,&quot;curved&quot;:1,&quot;sourcePerimeterSpacing&quot;:0,&quot;targetPerimeterSpacing&quot;:0};" vertex="1" parent="1">
          <mxGeometry x="930" y="545" width="390" height="30" as="geometry" />
        </mxCell>
        <mxCell id="2NzjeNtIevRZUWGrad5a-45" value="Vertical Scalabililty" style="whiteSpace=wrap;html=1;rounded=1;arcSize=50;align=center;verticalAlign=middle;strokeWidth=1;autosize=1;spacing=4;treeFolding=1;treeMoving=1;newEdgeStyle={&quot;edgeStyle&quot;:&quot;entityRelationEdgeStyle&quot;,&quot;startArrow&quot;:&quot;none&quot;,&quot;endArrow&quot;:&quot;none&quot;,&quot;segment&quot;:10,&quot;curved&quot;:1,&quot;sourcePerimeterSpacing&quot;:0,&quot;targetPerimeterSpacing&quot;:0};" vertex="1" parent="1">
          <mxGeometry x="1320" y="630" width="140" height="30" as="geometry" />
        </mxCell>
        <mxCell id="2NzjeNtIevRZUWGrad5a-47" value="Horizontal Scalability" style="whiteSpace=wrap;html=1;rounded=1;arcSize=50;align=center;verticalAlign=middle;strokeWidth=1;autosize=1;spacing=4;treeFolding=1;treeMoving=1;newEdgeStyle={&quot;edgeStyle&quot;:&quot;entityRelationEdgeStyle&quot;,&quot;startArrow&quot;:&quot;none&quot;,&quot;endArrow&quot;:&quot;none&quot;,&quot;segment&quot;:10,&quot;curved&quot;:1,&quot;sourcePerimeterSpacing&quot;:0,&quot;targetPerimeterSpacing&quot;:0};" vertex="1" parent="1">
          <mxGeometry x="1320" y="710" width="160" height="30" as="geometry" />
        </mxCell>
        <mxCell id="2NzjeNtIevRZUWGrad5a-50" value="Operability" style="whiteSpace=wrap;html=1;rounded=1;arcSize=50;align=center;verticalAlign=middle;strokeWidth=1;autosize=1;spacing=4;treeFolding=1;treeMoving=1;newEdgeStyle={&quot;edgeStyle&quot;:&quot;entityRelationEdgeStyle&quot;,&quot;startArrow&quot;:&quot;none&quot;,&quot;endArrow&quot;:&quot;none&quot;,&quot;segment&quot;:10,&quot;curved&quot;:1,&quot;sourcePerimeterSpacing&quot;:0,&quot;targetPerimeterSpacing&quot;:0};" vertex="1" parent="1">
          <mxGeometry x="-230" y="700" width="100" height="30" as="geometry" />
        </mxCell>
        <mxCell id="2NzjeNtIevRZUWGrad5a-52" value="Simplicity" style="whiteSpace=wrap;html=1;rounded=1;arcSize=50;align=center;verticalAlign=middle;strokeWidth=1;autosize=1;spacing=4;treeFolding=1;treeMoving=1;newEdgeStyle={&quot;edgeStyle&quot;:&quot;entityRelationEdgeStyle&quot;,&quot;startArrow&quot;:&quot;none&quot;,&quot;endArrow&quot;:&quot;none&quot;,&quot;segment&quot;:10,&quot;curved&quot;:1,&quot;sourcePerimeterSpacing&quot;:0,&quot;targetPerimeterSpacing&quot;:0};" vertex="1" parent="1">
          <mxGeometry x="-230" y="790" width="100" height="30" as="geometry" />
        </mxCell>
        <mxCell id="2NzjeNtIevRZUWGrad5a-54" value="Evolvability" style="whiteSpace=wrap;html=1;rounded=1;arcSize=50;align=center;verticalAlign=middle;strokeWidth=1;autosize=1;spacing=4;treeFolding=1;treeMoving=1;newEdgeStyle={&quot;edgeStyle&quot;:&quot;entityRelationEdgeStyle&quot;,&quot;startArrow&quot;:&quot;none&quot;,&quot;endArrow&quot;:&quot;none&quot;,&quot;segment&quot;:10,&quot;curved&quot;:1,&quot;sourcePerimeterSpacing&quot;:0,&quot;targetPerimeterSpacing&quot;:0};" vertex="1" parent="1">
          <mxGeometry x="-230" y="890" width="100" height="30" as="geometry" />
        </mxCell>
      </root>
    </mxGraphModel>
  </diagram>
  <diagram id="lt5ZiKWQnrJGQysvf_ef" name="Page-2">
    <mxGraphModel dx="461" dy="222" grid="1" gridSize="10" guides="1" tooltips="1" connect="1" arrows="1" fold="1" page="1" pageScale="1" pageWidth="3300" pageHeight="4681" math="0" shadow="0">
      <root>
        <mxCell id="0" />
        <mxCell id="1" parent="0" />
      </root>
    </mxGraphModel>
  </diagram>
</mxfile>
